<?xml version="1.0" encoding="utf-8"?>
<svg version="1.1" id="Layer_1" xmlns="http://www.w3.org/2000/svg" xmlns:xlink="http://www.w3.org/1999/xlink" x="0px" y="0px"
	 viewBox="0 0 2125.396 1676.241" fill="#FC8606" enable-background="new 0 0 2125.396 1676.241" xml:space="preserve">
<g id="Red_Heart">
	<g id="NatanTeam_Heart_Fixed">
		<g id="NatanTeam_Heart">
		</g>
	</g>
	<g id="Traditional_Heart">
		<path d="M1664.218,607.842c-132.758-175.385-412.842-80.959-412.842,138.338c0,162.423,220.226,401.509,335.353,516.469
			c-89.538,187.519-308.824,267.776-493.907,190.008v-42.812c-0.564,0.117-1.134,0.221-1.698,0.34c0,0,0.618-1.916,1.698-5.525
			v-0.842h0.251c20.627-69.427,188.356-687.658-335.668-824.527c0,0-79.344-52.101-84.111-70.49
			c-4.767-18.389-58.912-79.344-95.349-95.348c0,0-31.669-97.732-52.101-111.353c0,0,43.247-235.988-9.194-261.187
			C464.549,16.394,389.632,161.46,389.632,161.46s-129.402,13.621-145.407,6.811C228.221,161.46,98.82,32.058,73.961,52.49
			c-24.859,20.432-22.816,63.679,11.238,245.182c0,0-122.591,138.596,79.344,338.147c55.188,112.049-6.125,106.99,47.674,224.41
			c43.247,93.646,129.402,234.285,115.78,261.527c0,0,9.194,313.288-22.816,326.909c-32.01,13.621-91.943,72.533-20.432,106.586
			c0,0,0.341,40.864,24.859,52.101c53.463,24.859,108.97,20.432,133.829,0c24.859-20.432,40.864-24.859,63.679-77.3l54.485,9.194
			c-15.264,34.691-7.501,67.621,29.626,88.538c38.48,21.794,161.411,8.513,317.715-34.053c0,0,69.201,47.721,182.515-9.378
			c176.604,53.728,380.96,11.752,525.082-145.02c53.95-58.685,86.691-126.584,91.528-143.896
			c120.488-116.751,368.995-381.438,368.995-549.257C2077.061,526.887,1796.842,432.635,1664.218,607.842z M1664.021,1208.399
			c-94.075-92.754-319.74-333.328-319.74-462.219c0-75.4,61.342-136.742,136.742-136.742c75.4,0,136.742,61.342,136.742,136.742
			c0,25.655,20.797,46.453,46.453,46.453c25.655,0,46.453-20.797,46.453-46.453c0-75.4,61.342-136.742,136.742-136.742
			c75.4,0,136.742,61.342,136.742,136.742C1984.156,872.745,1753.755,1118.927,1664.021,1208.399z"/>
	</g>
</g>
</svg>
